<?xml version="1.0" encoding="UTF-8" standalone="no"?>
<!DOCTYPE svg PUBLIC "-//W3C//DTD SVG 1.1//EN"
 "http://www.w3.org/Graphics/SVG/1.1/DTD/svg11.dtd">
<!-- Generated by graphviz version 2.40.1 (20161225.0304)
 -->
<!-- Title: part2 Pages: 1 -->
<svg width="903pt" height="740pt"
 viewBox="0.00 0.00 902.64 740.00" xmlns="http://www.w3.org/2000/svg" xmlns:xlink="http://www.w3.org/1999/xlink">
<g id="graph0" class="graph" transform="scale(1 1) rotate(0) translate(4 736)">
<title>part2</title>
<polygon fill="#ffffff" stroke="transparent" points="-4,4 -4,-736 898.6407,-736 898.6407,4 -4,4"/>
<!-- muted olive -->
<g id="node1" class="node">
<title>muted olive</title>
<ellipse fill="none" stroke="#000000" cx="800.0946" cy="-105" rx="53.8905" ry="18"/>
<text text-anchor="middle" x="800.0946" y="-101.3" font-family="Times,serif" font-size="14.00" fill="#000000">muted olive</text>
</g>
<!-- faded salmon -->
<g id="node2" class="node">
<title>faded salmon</title>
<ellipse fill="none" stroke="#000000" cx="718.0946" cy="-18" rx="59.5901" ry="18"/>
<text text-anchor="middle" x="718.0946" y="-14.3" font-family="Times,serif" font-size="14.00" fill="#000000">faded salmon</text>
</g>
<!-- muted olive&#45;&gt;faded salmon -->
<g id="edge1" class="edge">
<title>muted olive&#45;&gt;faded salmon</title>
<path fill="none" stroke="#000000" d="M783.894,-87.8116C771.8433,-75.026 755.214,-57.3829 741.6884,-43.0324"/>
<polygon fill="#000000" stroke="#000000" points="743.948,-40.327 734.5422,-35.4505 738.8541,-45.1282 743.948,-40.327"/>
<text text-anchor="middle" x="767.0946" y="-57.8" font-family="Times,serif" font-size="14.00" fill="#000000">5</text>
</g>
<!-- dim lime -->
<g id="node3" class="node">
<title>dim lime</title>
<ellipse fill="none" stroke="#000000" cx="851.0946" cy="-18" rx="43.5923" ry="18"/>
<text text-anchor="middle" x="851.0946" y="-14.3" font-family="Times,serif" font-size="14.00" fill="#000000">dim lime</text>
</g>
<!-- muted olive&#45;&gt;dim lime -->
<g id="edge2" class="edge">
<title>muted olive&#45;&gt;dim lime</title>
<path fill="none" stroke="#000000" d="M810.6618,-86.9735C817.8209,-74.7609 827.4046,-58.4123 835.4446,-44.697"/>
<polygon fill="#000000" stroke="#000000" points="838.6776,-46.1027 840.7154,-35.7057 832.6387,-42.5627 838.6776,-46.1027"/>
<text text-anchor="middle" x="832.0946" y="-57.8" font-family="Times,serif" font-size="14.00" fill="#000000">5</text>
</g>
<!-- light lavender -->
<g id="node4" class="node">
<title>light lavender</title>
<ellipse fill="none" stroke="#000000" cx="201.0946" cy="-192" rx="61.1893" ry="18"/>
<text text-anchor="middle" x="201.0946" y="-188.3" font-family="Times,serif" font-size="14.00" fill="#000000">light lavender</text>
</g>
<!-- light lavender&#45;&gt;muted olive -->
<g id="edge4" class="edge">
<title>light lavender&#45;&gt;muted olive</title>
<path fill="none" stroke="#000000" d="M247.3419,-180.0997C256.8146,-177.8883 266.7464,-175.7323 276.0946,-174 441.8741,-143.2787 639.629,-121.111 738.051,-111.045"/>
<polygon fill="#000000" stroke="#000000" points="738.5262,-114.5149 748.1212,-110.022 737.8186,-107.5507 738.5262,-114.5149"/>
<text text-anchor="middle" x="480.0946" y="-144.8" font-family="Times,serif" font-size="14.00" fill="#000000">5</text>
</g>
<!-- light lavender&#45;&gt;faded salmon -->
<g id="edge6" class="edge">
<title>light lavender&#45;&gt;faded salmon</title>
<path fill="none" stroke="#000000" d="M198.5716,-173.8576C196.4127,-150.2701 196.7019,-109.4451 220.0946,-87 250.6018,-57.7285 520.1937,-33.2407 649.494,-23.0627"/>
<polygon fill="#000000" stroke="#000000" points="649.9854,-26.5351 659.6827,-22.2675 649.4406,-19.5564 649.9854,-26.5351"/>
<text text-anchor="middle" x="224.0946" y="-101.3" font-family="Times,serif" font-size="14.00" fill="#000000">2</text>
</g>
<!-- mirrored lime -->
<g id="node5" class="node">
<title>mirrored lime</title>
<ellipse fill="none" stroke="#000000" cx="298.0946" cy="-105" rx="61.1893" ry="18"/>
<text text-anchor="middle" x="298.0946" y="-101.3" font-family="Times,serif" font-size="14.00" fill="#000000">mirrored lime</text>
</g>
<!-- light lavender&#45;&gt;mirrored lime -->
<g id="edge3" class="edge">
<title>light lavender&#45;&gt;mirrored lime</title>
<path fill="none" stroke="#000000" d="M215.1224,-174.0314C223.5483,-163.7919 234.7983,-151.0419 246.0946,-141 251.3877,-136.2946 257.3145,-131.6751 263.2198,-127.3967"/>
<polygon fill="#000000" stroke="#000000" points="265.5962,-130.0055 271.7799,-121.4024 261.5809,-124.2715 265.5962,-130.0055"/>
<text text-anchor="middle" x="250.0946" y="-144.8" font-family="Times,serif" font-size="14.00" fill="#000000">3</text>
</g>
<!-- dim brown -->
<g id="node6" class="node">
<title>dim brown</title>
<ellipse fill="none" stroke="#000000" cx="124.0946" cy="-105" rx="50.8918" ry="18"/>
<text text-anchor="middle" x="124.0946" y="-101.3" font-family="Times,serif" font-size="14.00" fill="#000000">dim brown</text>
</g>
<!-- light lavender&#45;&gt;dim brown -->
<g id="edge5" class="edge">
<title>light lavender&#45;&gt;dim brown</title>
<path fill="none" stroke="#000000" d="M185.5125,-174.3943C174.1665,-161.5748 158.6455,-144.038 146.0453,-129.8014"/>
<polygon fill="#000000" stroke="#000000" points="148.6393,-127.4513 139.3907,-122.2827 143.3974,-132.0907 148.6393,-127.4513"/>
<text text-anchor="middle" x="171.0946" y="-144.8" font-family="Times,serif" font-size="14.00" fill="#000000">3</text>
</g>
<!-- dim tomato -->
<g id="node7" class="node">
<title>dim tomato</title>
<ellipse fill="none" stroke="#000000" cx="298.0946" cy="-279" rx="52.7911" ry="18"/>
<text text-anchor="middle" x="298.0946" y="-275.3" font-family="Times,serif" font-size="14.00" fill="#000000">dim tomato</text>
</g>
<!-- dim tomato&#45;&gt;light lavender -->
<g id="edge8" class="edge">
<title>dim tomato&#45;&gt;light lavender</title>
<path fill="none" stroke="#000000" d="M278.9305,-261.8116C264.3165,-248.7042 244.0103,-230.4914 227.803,-215.955"/>
<polygon fill="#000000" stroke="#000000" points="230.0002,-213.2241 220.2188,-209.1527 225.3263,-218.4352 230.0002,-213.2241"/>
<text text-anchor="middle" x="259.0946" y="-231.8" font-family="Times,serif" font-size="14.00" fill="#000000">4</text>
</g>
<!-- dim tomato&#45;&gt;mirrored lime -->
<g id="edge9" class="edge">
<title>dim tomato&#45;&gt;mirrored lime</title>
<path fill="none" stroke="#000000" d="M298.0946,-260.7078C298.0946,-230.3436 298.0946,-169.3226 298.0946,-133.3464"/>
<polygon fill="#000000" stroke="#000000" points="301.5947,-133.0471 298.0946,-123.0471 294.5947,-133.0471 301.5947,-133.0471"/>
<text text-anchor="middle" x="302.0946" y="-188.3" font-family="Times,serif" font-size="14.00" fill="#000000">1</text>
</g>
<!-- striped purple -->
<g id="node8" class="node">
<title>striped purple</title>
<ellipse fill="none" stroke="#000000" cx="61.0946" cy="-192" rx="61.1893" ry="18"/>
<text text-anchor="middle" x="61.0946" y="-188.3" font-family="Times,serif" font-size="14.00" fill="#000000">striped purple</text>
</g>
<!-- dim tomato&#45;&gt;striped purple -->
<g id="edge7" class="edge">
<title>dim tomato&#45;&gt;striped purple</title>
<path fill="none" stroke="#000000" d="M262.0994,-265.7866C221.2024,-250.7737 154.2772,-226.2063 108.9961,-209.5841"/>
<polygon fill="#000000" stroke="#000000" points="109.9906,-206.2209 99.397,-206.0604 107.5783,-212.7921 109.9906,-206.2209"/>
<text text-anchor="middle" x="197.0946" y="-231.8" font-family="Times,serif" font-size="14.00" fill="#000000">2</text>
</g>
<!-- plaid gold -->
<g id="node9" class="node">
<title>plaid gold</title>
<ellipse fill="none" stroke="#000000" cx="452.0946" cy="-279" rx="47.3916" ry="18"/>
<text text-anchor="middle" x="452.0946" y="-275.3" font-family="Times,serif" font-size="14.00" fill="#000000">plaid gold</text>
</g>
<!-- plaid gold&#45;&gt;mirrored lime -->
<g id="edge10" class="edge">
<title>plaid gold&#45;&gt;mirrored lime</title>
<path fill="none" stroke="#000000" d="M423.0404,-264.3956C401.0933,-252.2211 371.3858,-233.1608 351.0946,-210 340.2487,-197.6203 322.0465,-159.1968 310.0531,-132.4379"/>
<polygon fill="#000000" stroke="#000000" points="313.1979,-130.8958 305.9405,-123.1769 306.8004,-133.7368 313.1979,-130.8958"/>
<text text-anchor="middle" x="355.0946" y="-188.3" font-family="Times,serif" font-size="14.00" fill="#000000">2</text>
</g>
<!-- bright black -->
<g id="node10" class="node">
<title>bright black</title>
<ellipse fill="none" stroke="#000000" cx="552.0946" cy="-192" rx="54.6905" ry="18"/>
<text text-anchor="middle" x="552.0946" y="-188.3" font-family="Times,serif" font-size="14.00" fill="#000000">bright black</text>
</g>
<!-- plaid gold&#45;&gt;bright black -->
<g id="edge11" class="edge">
<title>plaid gold&#45;&gt;bright black</title>
<path fill="none" stroke="#000000" d="M471.3756,-262.2255C486.4956,-249.0711 507.7347,-230.5931 524.6314,-215.8929"/>
<polygon fill="#000000" stroke="#000000" points="527.2844,-218.2241 532.5316,-209.0198 522.6898,-212.943 527.2844,-218.2241"/>
<text text-anchor="middle" x="511.0946" y="-231.8" font-family="Times,serif" font-size="14.00" fill="#000000">5</text>
</g>
<!-- light fuchsia -->
<g id="node11" class="node">
<title>light fuchsia</title>
<ellipse fill="none" stroke="#000000" cx="424.0946" cy="-192" rx="55.7903" ry="18"/>
<text text-anchor="middle" x="424.0946" y="-188.3" font-family="Times,serif" font-size="14.00" fill="#000000">light fuchsia</text>
</g>
<!-- plaid gold&#45;&gt;light fuchsia -->
<g id="edge12" class="edge">
<title>plaid gold&#45;&gt;light fuchsia</title>
<path fill="none" stroke="#000000" d="M446.293,-260.9735C442.4636,-249.0751 437.3707,-233.2508 433.029,-219.7606"/>
<polygon fill="#000000" stroke="#000000" points="436.2842,-218.4502 429.8888,-210.0034 429.6208,-220.5948 436.2842,-218.4502"/>
<text text-anchor="middle" x="443.0946" y="-231.8" font-family="Times,serif" font-size="14.00" fill="#000000">2</text>
</g>
<!-- dull beige -->
<g id="node12" class="node">
<title>dull beige</title>
<ellipse fill="none" stroke="#000000" cx="671.0946" cy="-192" rx="46.5926" ry="18"/>
<text text-anchor="middle" x="671.0946" y="-188.3" font-family="Times,serif" font-size="14.00" fill="#000000">dull beige</text>
</g>
<!-- plaid gold&#45;&gt;dull beige -->
<g id="edge13" class="edge">
<title>plaid gold&#45;&gt;dull beige</title>
<path fill="none" stroke="#000000" d="M484.8811,-265.9752C523.2942,-250.7152 587.0191,-225.3998 629.0398,-208.7067"/>
<polygon fill="#000000" stroke="#000000" points="630.4408,-211.9163 638.4421,-204.9715 627.8564,-205.4108 630.4408,-211.9163"/>
<text text-anchor="middle" x="578.0946" y="-231.8" font-family="Times,serif" font-size="14.00" fill="#000000">1</text>
</g>
<!-- posh fuchsia -->
<g id="node13" class="node">
<title>posh fuchsia</title>
<ellipse fill="none" stroke="#000000" cx="440.0946" cy="-366" rx="56.59" ry="18"/>
<text text-anchor="middle" x="440.0946" y="-362.3" font-family="Times,serif" font-size="14.00" fill="#000000">posh fuchsia</text>
</g>
<!-- posh fuchsia&#45;&gt;plaid gold -->
<g id="edge14" class="edge">
<title>posh fuchsia&#45;&gt;plaid gold</title>
<path fill="none" stroke="#000000" d="M442.581,-347.9735C444.2061,-336.1918 446.3621,-320.5607 448.2107,-307.1581"/>
<polygon fill="#000000" stroke="#000000" points="451.7121,-307.3878 449.6114,-297.0034 444.7777,-306.4313 451.7121,-307.3878"/>
<text text-anchor="middle" x="450.0946" y="-318.8" font-family="Times,serif" font-size="14.00" fill="#000000">2</text>
</g>
<!-- dim cyan -->
<g id="node14" class="node">
<title>dim cyan</title>
<ellipse fill="none" stroke="#000000" cx="340.0946" cy="-453" rx="44.393" ry="18"/>
<text text-anchor="middle" x="340.0946" y="-449.3" font-family="Times,serif" font-size="14.00" fill="#000000">dim cyan</text>
</g>
<!-- dim cyan&#45;&gt;dim tomato -->
<g id="edge15" class="edge">
<title>dim cyan&#45;&gt;dim tomato</title>
<path fill="none" stroke="#000000" d="M335.758,-435.0343C328.4329,-404.6874 313.5584,-343.0644 304.8544,-307.0052"/>
<polygon fill="#000000" stroke="#000000" points="308.2192,-306.0282 302.4705,-297.1286 301.4146,-307.6707 308.2192,-306.0282"/>
<text text-anchor="middle" x="327.0946" y="-362.3" font-family="Times,serif" font-size="14.00" fill="#000000">3</text>
</g>
<!-- dim cyan&#45;&gt;posh fuchsia -->
<g id="edge16" class="edge">
<title>dim cyan&#45;&gt;posh fuchsia</title>
<path fill="none" stroke="#000000" d="M358.9038,-436.636C373.9764,-423.5229 395.3451,-404.9321 412.3771,-390.1142"/>
<polygon fill="#000000" stroke="#000000" points="415.0962,-392.3878 420.3434,-383.1835 410.5017,-387.1067 415.0962,-392.3878"/>
<text text-anchor="middle" x="399.0946" y="-405.8" font-family="Times,serif" font-size="14.00" fill="#000000">4</text>
</g>
<!-- vibrant tomato -->
<g id="node15" class="node">
<title>vibrant tomato</title>
<ellipse fill="none" stroke="#000000" cx="579.0946" cy="-366" rx="64.189" ry="18"/>
<text text-anchor="middle" x="579.0946" y="-362.3" font-family="Times,serif" font-size="14.00" fill="#000000">vibrant tomato</text>
</g>
<!-- vibrant tomato&#45;&gt;dim tomato -->
<g id="edge19" class="edge">
<title>vibrant tomato&#45;&gt;dim tomato</title>
<path fill="none" stroke="#000000" d="M530.5473,-354.0339C488.1255,-343.5769 433.2475,-330.0475 433.0946,-330 401.7725,-320.2602 367.1791,-307.1438 340.8525,-296.6519"/>
<polygon fill="#000000" stroke="#000000" points="342.1326,-293.3943 331.5486,-292.9163 339.5244,-299.8903 342.1326,-293.3943"/>
<text text-anchor="middle" x="437.0946" y="-318.8" font-family="Times,serif" font-size="14.00" fill="#000000">1</text>
</g>
<!-- vibrant tomato&#45;&gt;plaid gold -->
<g id="edge18" class="edge">
<title>vibrant tomato&#45;&gt;plaid gold</title>
<path fill="none" stroke="#000000" d="M554.6077,-349.2255C534.3725,-335.3636 505.5077,-315.5901 483.5603,-300.5553"/>
<polygon fill="#000000" stroke="#000000" points="485.4502,-297.6074 475.2222,-294.8433 481.4941,-303.3824 485.4502,-297.6074"/>
<text text-anchor="middle" x="527.0946" y="-318.8" font-family="Times,serif" font-size="14.00" fill="#000000">1</text>
</g>
<!-- vibrant olive -->
<g id="node16" class="node">
<title>vibrant olive</title>
<ellipse fill="none" stroke="#000000" cx="579.0946" cy="-279" rx="57.3905" ry="18"/>
<text text-anchor="middle" x="579.0946" y="-275.3" font-family="Times,serif" font-size="14.00" fill="#000000">vibrant olive</text>
</g>
<!-- vibrant tomato&#45;&gt;vibrant olive -->
<g id="edge17" class="edge">
<title>vibrant tomato&#45;&gt;vibrant olive</title>
<path fill="none" stroke="#000000" d="M579.0946,-347.9735C579.0946,-336.1918 579.0946,-320.5607 579.0946,-307.1581"/>
<polygon fill="#000000" stroke="#000000" points="582.5947,-307.0033 579.0946,-297.0034 575.5947,-307.0034 582.5947,-307.0033"/>
<text text-anchor="middle" x="583.0946" y="-318.8" font-family="Times,serif" font-size="14.00" fill="#000000">3</text>
</g>
<!-- dotted bronze -->
<g id="node17" class="node">
<title>dotted bronze</title>
<ellipse fill="none" stroke="#000000" cx="579.0946" cy="-453" rx="60.3893" ry="18"/>
<text text-anchor="middle" x="579.0946" y="-449.3" font-family="Times,serif" font-size="14.00" fill="#000000">dotted bronze</text>
</g>
<!-- dotted bronze&#45;&gt;faded salmon -->
<g id="edge20" class="edge">
<title>dotted bronze&#45;&gt;faded salmon</title>
<path fill="none" stroke="#000000" d="M636.0994,-446.8067C684.478,-438.0133 746.0946,-416.8353 746.0946,-366 746.0946,-366 746.0946,-366 746.0946,-235.5 746.0946,-199.2325 730.5864,-96.4815 722.653,-46.2911"/>
<polygon fill="#000000" stroke="#000000" points="726.0657,-45.4649 721.0381,-36.1389 719.1526,-46.5646 726.0657,-45.4649"/>
<text text-anchor="middle" x="750.0946" y="-231.8" font-family="Times,serif" font-size="14.00" fill="#000000">1</text>
</g>
<!-- dotted bronze&#45;&gt;dim tomato -->
<g id="edge21" class="edge">
<title>dotted bronze&#45;&gt;dim tomato</title>
<path fill="none" stroke="#000000" d="M523.5058,-445.6515C477.4203,-437.2251 412.2205,-419.6659 366.0946,-384 337.3216,-361.7519 341.9609,-345.4662 322.0946,-315 320.0457,-311.8579 317.8829,-308.5718 315.7286,-305.3174"/>
<polygon fill="#000000" stroke="#000000" points="318.5817,-303.2869 310.1301,-296.8978 312.7526,-307.1629 318.5817,-303.2869"/>
<text text-anchor="middle" x="370.0946" y="-362.3" font-family="Times,serif" font-size="14.00" fill="#000000">1</text>
</g>
<!-- dotted bronze&#45;&gt;dull beige -->
<g id="edge22" class="edge">
<title>dotted bronze&#45;&gt;dull beige</title>
<path fill="none" stroke="#000000" d="M604.2108,-436.5733C620.814,-424.2344 641.418,-405.7624 652.0946,-384 678.2564,-330.6737 677.2908,-259.0996 674.2265,-220.1446"/>
<polygon fill="#000000" stroke="#000000" points="677.7021,-219.714 673.3274,-210.0645 670.7298,-220.336 677.7021,-219.714"/>
<text text-anchor="middle" x="675.0946" y="-318.8" font-family="Times,serif" font-size="14.00" fill="#000000">2</text>
</g>
<!-- dotted bronze&#45;&gt;vibrant tomato -->
<g id="edge23" class="edge">
<title>dotted bronze&#45;&gt;vibrant tomato</title>
<path fill="none" stroke="#000000" d="M579.0946,-434.9735C579.0946,-423.1918 579.0946,-407.5607 579.0946,-394.1581"/>
<polygon fill="#000000" stroke="#000000" points="582.5947,-394.0033 579.0946,-384.0034 575.5947,-394.0034 582.5947,-394.0033"/>
<text text-anchor="middle" x="583.0946" y="-405.8" font-family="Times,serif" font-size="14.00" fill="#000000">4</text>
</g>
<!-- bright turquoise -->
<g id="node18" class="node">
<title>bright turquoise</title>
<ellipse fill="none" stroke="#000000" cx="364.0946" cy="-540" rx="68.7879" ry="18"/>
<text text-anchor="middle" x="364.0946" y="-536.3" font-family="Times,serif" font-size="14.00" fill="#000000">bright turquoise</text>
</g>
<!-- bright turquoise&#45;&gt;dim tomato -->
<g id="edge24" class="edge">
<title>bright turquoise&#45;&gt;dim tomato</title>
<path fill="none" stroke="#000000" d="M335.7619,-523.4231C318.1596,-511.3703 297.0504,-493.2897 287.0946,-471 262.9489,-416.941 277.532,-345.6493 288.7755,-306.937"/>
<polygon fill="#000000" stroke="#000000" points="292.2598,-307.5093 291.8232,-296.9235 285.5631,-305.4711 292.2598,-307.5093"/>
<text text-anchor="middle" x="278.0946" y="-405.8" font-family="Times,serif" font-size="14.00" fill="#000000">2</text>
</g>
<!-- bright turquoise&#45;&gt;dim cyan -->
<g id="edge25" class="edge">
<title>bright turquoise&#45;&gt;dim cyan</title>
<path fill="none" stroke="#000000" d="M359.1218,-521.9735C355.8394,-510.0751 351.4741,-494.2508 347.7527,-480.7606"/>
<polygon fill="#000000" stroke="#000000" points="351.0944,-479.7125 345.061,-471.0034 344.3464,-481.5741 351.0944,-479.7125"/>
<text text-anchor="middle" x="357.0946" y="-492.8" font-family="Times,serif" font-size="14.00" fill="#000000">1</text>
</g>
<!-- bright turquoise&#45;&gt;dotted bronze -->
<g id="edge26" class="edge">
<title>bright turquoise&#45;&gt;dotted bronze</title>
<path fill="none" stroke="#000000" d="M401.5447,-524.8458C438.2563,-509.9904 494.2732,-487.3231 533.5447,-471.4318"/>
<polygon fill="#000000" stroke="#000000" points="535.1893,-474.5421 543.1463,-467.5465 532.5635,-468.0532 535.1893,-474.5421"/>
<text text-anchor="middle" x="488.0946" y="-492.8" font-family="Times,serif" font-size="14.00" fill="#000000">4</text>
</g>
<!-- bright teal -->
<g id="node19" class="node">
<title>bright teal</title>
<ellipse fill="none" stroke="#000000" cx="579.0946" cy="-540" rx="48.1917" ry="18"/>
<text text-anchor="middle" x="579.0946" y="-536.3" font-family="Times,serif" font-size="14.00" fill="#000000">bright teal</text>
</g>
<!-- bright teal&#45;&gt;muted olive -->
<g id="edge28" class="edge">
<title>bright teal&#45;&gt;muted olive</title>
<path fill="none" stroke="#000000" d="M622.0275,-531.7808C685.0196,-518.4756 795.0946,-489.9407 795.0946,-453 795.0946,-453 795.0946,-453 795.0946,-192 795.0946,-172.5154 796.36,-150.6165 797.6177,-133.6639"/>
<polygon fill="#000000" stroke="#000000" points="801.1368,-133.5561 798.4297,-123.313 794.1583,-133.0086 801.1368,-133.5561"/>
<text text-anchor="middle" x="799.0946" y="-318.8" font-family="Times,serif" font-size="14.00" fill="#000000">4</text>
</g>
<!-- bright teal&#45;&gt;dim lime -->
<g id="edge29" class="edge">
<title>bright teal&#45;&gt;dim lime</title>
<path fill="none" stroke="#000000" d="M626.4383,-536.2576C711.6571,-528.2077 882.0946,-505.5405 882.0946,-453 882.0946,-453 882.0946,-453 882.0946,-105 882.0946,-83.9561 873.947,-61.6234 866.0058,-44.8541"/>
<polygon fill="#000000" stroke="#000000" points="869.0193,-43.0548 861.4171,-35.6753 862.7582,-46.185 869.0193,-43.0548"/>
<text text-anchor="middle" x="886.0946" y="-275.3" font-family="Times,serif" font-size="14.00" fill="#000000">4</text>
</g>
<!-- bright teal&#45;&gt;dotted bronze -->
<g id="edge27" class="edge">
<title>bright teal&#45;&gt;dotted bronze</title>
<path fill="none" stroke="#000000" d="M579.0946,-521.9735C579.0946,-510.1918 579.0946,-494.5607 579.0946,-481.1581"/>
<polygon fill="#000000" stroke="#000000" points="582.5947,-481.0033 579.0946,-471.0034 575.5947,-481.0034 582.5947,-481.0033"/>
<text text-anchor="middle" x="583.0946" y="-492.8" font-family="Times,serif" font-size="14.00" fill="#000000">4</text>
</g>
<!-- mirrored white -->
<g id="node20" class="node">
<title>mirrored white</title>
<ellipse fill="none" stroke="#000000" cx="470.0946" cy="-627" rx="64.9885" ry="18"/>
<text text-anchor="middle" x="470.0946" y="-623.3" font-family="Times,serif" font-size="14.00" fill="#000000">mirrored white</text>
</g>
<!-- mirrored white&#45;&gt;bright teal -->
<g id="edge30" class="edge">
<title>mirrored white&#45;&gt;bright teal</title>
<path fill="none" stroke="#000000" d="M491.6295,-609.8116C508.4159,-596.4132 531.8858,-577.6804 550.2878,-562.9925"/>
<polygon fill="#000000" stroke="#000000" points="552.7117,-565.5361 558.344,-556.5624 548.3449,-560.0651 552.7117,-565.5361"/>
<text text-anchor="middle" x="535.0946" y="-579.8" font-family="Times,serif" font-size="14.00" fill="#000000">3</text>
</g>
<!-- shiny gold -->
<g id="node21" class="node">
<title>shiny gold</title>
<ellipse fill="none" stroke="#000000" cx="401.0946" cy="-714" rx="48.9926" ry="18"/>
<text text-anchor="middle" x="401.0946" y="-710.3" font-family="Times,serif" font-size="14.00" fill="#000000">shiny gold</text>
</g>
<!-- shiny gold&#45;&gt;striped purple -->
<g id="edge32" class="edge">
<title>shiny gold&#45;&gt;striped purple</title>
<path fill="none" stroke="#000000" d="M353.0376,-710.9643C263.4894,-703.9821 80.0946,-682.8632 80.0946,-627 80.0946,-627 80.0946,-627 80.0946,-279 80.0946,-258.8994 75.1938,-236.7755 70.3702,-219.8682"/>
<polygon fill="#000000" stroke="#000000" points="73.6572,-218.6451 67.4213,-210.0798 66.9547,-220.6644 73.6572,-218.6451"/>
<text text-anchor="middle" x="84.0946" y="-449.3" font-family="Times,serif" font-size="14.00" fill="#000000">1</text>
</g>
<!-- shiny gold&#45;&gt;bright turquoise -->
<g id="edge31" class="edge">
<title>shiny gold&#45;&gt;bright turquoise</title>
<path fill="none" stroke="#000000" d="M397.2743,-696.0343C390.8212,-665.6874 377.7175,-604.0644 370.0497,-568.0052"/>
<polygon fill="#000000" stroke="#000000" points="373.453,-567.1819 367.9495,-558.1286 366.6061,-568.6379 373.453,-567.1819"/>
<text text-anchor="middle" x="390.0946" y="-623.3" font-family="Times,serif" font-size="14.00" fill="#000000">3</text>
</g>
<!-- shiny gold&#45;&gt;bright teal -->
<g id="edge34" class="edge">
<title>shiny gold&#45;&gt;bright teal</title>
<path fill="none" stroke="#000000" d="M441.5855,-703.8752C473.5638,-693.9067 517.1481,-675.6311 544.0946,-645 563.0494,-623.4533 571.8002,-591.3108 575.8016,-568.2687"/>
<polygon fill="#000000" stroke="#000000" points="579.3071,-568.4998 577.367,-558.0841 572.3883,-567.4363 579.3071,-568.4998"/>
<text text-anchor="middle" x="568.0946" y="-623.3" font-family="Times,serif" font-size="14.00" fill="#000000">1</text>
</g>
<!-- shiny gold&#45;&gt;mirrored white -->
<g id="edge33" class="edge">
<title>shiny gold&#45;&gt;mirrored white</title>
<path fill="none" stroke="#000000" d="M415.0578,-696.3943C424.9991,-683.8595 438.5174,-666.8147 449.6683,-652.7548"/>
<polygon fill="#000000" stroke="#000000" points="452.4436,-654.8881 455.9153,-644.8782 446.9591,-650.5383 452.4436,-654.8881"/>
<text text-anchor="middle" x="443.0946" y="-666.8" font-family="Times,serif" font-size="14.00" fill="#000000">5</text>
</g>
</g>
</svg>
