<?xml version="1.0" encoding="UTF-8" standalone="no"?>
<!DOCTYPE svg PUBLIC "-//W3C//DTD SVG 1.1//EN"
 "http://www.w3.org/Graphics/SVG/1.1/DTD/svg11.dtd">
<!-- Generated by graphviz version 2.40.1 (20161225.0304)
 -->
<!-- Title: Contiguous Numbers Pages: 1 -->
<svg width="322pt" height="1453pt"
 viewBox="0.00 0.00 321.50 1453.39" xmlns="http://www.w3.org/2000/svg" xmlns:xlink="http://www.w3.org/1999/xlink">
<g id="graph0" class="graph" transform="scale(1 1) rotate(0) translate(4 1449.3864)">
<title>Contiguous Numbers</title>
<polygon fill="#ffffff" stroke="transparent" points="-4,4 -4,-1449.3864 317.5,-1449.3864 317.5,4 -4,4"/>
<g id="clust1" class="cluster">
<title>cluster_numbers</title>
<polygon fill="#d3d3d3" stroke="#d3d3d3" points="8,-136 8,-1437.3864 98,-1437.3864 98,-136 8,-136"/>
</g>
<!-- 35048416 -->
<g id="node1" class="node">
<title>35048416</title>
<polygon fill="#add8e6" stroke="#add8e6" points="89.5,-1429.3864 16.5,-1429.3864 16.5,-1393.3864 89.5,-1393.3864 89.5,-1429.3864"/>
<text text-anchor="middle" x="53" y="-1407.6864" font-family="Times,serif" font-size="14.00" fill="#000000">35048416</text>
</g>
<!-- 53564537 -->
<g id="node2" class="node">
<title>53564537</title>
<polygon fill="#add8e6" stroke="#add8e6" points="89.5,-1332.3899 16.5,-1332.3899 16.5,-1296.3899 89.5,-1296.3899 89.5,-1332.3899"/>
<text text-anchor="middle" x="53" y="-1310.6899" font-family="Times,serif" font-size="14.00" fill="#000000">53564537</text>
</g>
<!-- 35048416&#45;&gt;53564537 -->
<g id="edge1" class="edge">
<title>35048416&#45;&gt;53564537</title>
<path fill="none" stroke="#000000" d="M53,-1393.1421C53,-1378.9167 53,-1358.9093 53,-1342.6209"/>
<polygon fill="#000000" stroke="#000000" points="56.5001,-1342.5523 53,-1332.5523 49.5001,-1342.5524 56.5001,-1342.5523"/>
</g>
<!-- 62711937 -->
<g id="node3" class="node">
<title>62711937</title>
<polygon fill="#add8e6" stroke="#add8e6" points="89.5,-1235.3933 16.5,-1235.3933 16.5,-1199.3933 89.5,-1199.3933 89.5,-1235.3933"/>
<text text-anchor="middle" x="53" y="-1213.6933" font-family="Times,serif" font-size="14.00" fill="#000000">62711937</text>
</g>
<!-- 53564537&#45;&gt;62711937 -->
<g id="edge2" class="edge">
<title>53564537&#45;&gt;62711937</title>
<path fill="none" stroke="#000000" d="M53,-1296.1455C53,-1281.9201 53,-1261.9127 53,-1245.6244"/>
<polygon fill="#000000" stroke="#000000" points="56.5001,-1245.5558 53,-1235.5558 49.5001,-1245.5558 56.5001,-1245.5558"/>
</g>
<!-- 52688226 -->
<g id="node4" class="node">
<title>52688226</title>
<polygon fill="#add8e6" stroke="#add8e6" points="89.5,-1163.3933 16.5,-1163.3933 16.5,-1127.3933 89.5,-1127.3933 89.5,-1163.3933"/>
<text text-anchor="middle" x="53" y="-1141.6933" font-family="Times,serif" font-size="14.00" fill="#000000">52688226</text>
</g>
<!-- 62711937&#45;&gt;52688226 -->
<g id="edge3" class="edge">
<title>62711937&#45;&gt;52688226</title>
<path fill="none" stroke="#000000" d="M53,-1199.2247C53,-1191.5243 53,-1182.3677 53,-1173.8099"/>
<polygon fill="#000000" stroke="#000000" points="56.5001,-1173.8065 53,-1163.8066 49.5001,-1173.8066 56.5001,-1173.8065"/>
</g>
<!-- 32111531 -->
<g id="node5" class="node">
<title>32111531</title>
<polygon fill="#add8e6" stroke="#add8e6" points="89.5,-1091.3933 16.5,-1091.3933 16.5,-1055.3933 89.5,-1055.3933 89.5,-1091.3933"/>
<text text-anchor="middle" x="53" y="-1069.6933" font-family="Times,serif" font-size="14.00" fill="#000000">32111531</text>
</g>
<!-- 52688226&#45;&gt;32111531 -->
<g id="edge4" class="edge">
<title>52688226&#45;&gt;32111531</title>
<path fill="none" stroke="#000000" d="M53,-1127.2247C53,-1119.5243 53,-1110.3677 53,-1101.8099"/>
<polygon fill="#000000" stroke="#000000" points="56.5001,-1101.8065 53,-1091.8066 49.5001,-1101.8066 56.5001,-1101.8065"/>
</g>
<!-- 61755566 -->
<g id="node6" class="node">
<title>61755566</title>
<polygon fill="#add8e6" stroke="#add8e6" points="89.5,-1019.3933 16.5,-1019.3933 16.5,-983.3933 89.5,-983.3933 89.5,-1019.3933"/>
<text text-anchor="middle" x="53" y="-997.6933" font-family="Times,serif" font-size="14.00" fill="#000000">61755566</text>
</g>
<!-- 32111531&#45;&gt;61755566 -->
<g id="edge5" class="edge">
<title>32111531&#45;&gt;61755566</title>
<path fill="none" stroke="#000000" d="M53,-1055.2247C53,-1047.5243 53,-1038.3677 53,-1029.8099"/>
<polygon fill="#000000" stroke="#000000" points="56.5001,-1029.8065 53,-1019.8066 49.5001,-1029.8066 56.5001,-1029.8065"/>
</g>
<!-- 53833200 -->
<g id="node7" class="node">
<title>53833200</title>
<polygon fill="#add8e6" stroke="#add8e6" points="89.5,-947.3933 16.5,-947.3933 16.5,-911.3933 89.5,-911.3933 89.5,-947.3933"/>
<text text-anchor="middle" x="53" y="-925.6933" font-family="Times,serif" font-size="14.00" fill="#000000">53833200</text>
</g>
<!-- 61755566&#45;&gt;53833200 -->
<g id="edge6" class="edge">
<title>61755566&#45;&gt;53833200</title>
<path fill="none" stroke="#000000" d="M53,-983.2247C53,-975.5243 53,-966.3677 53,-957.8099"/>
<polygon fill="#000000" stroke="#000000" points="56.5001,-957.8065 53,-947.8066 49.5001,-957.8066 56.5001,-957.8065"/>
</g>
<!-- 33239826 -->
<g id="node8" class="node">
<title>33239826</title>
<polygon fill="#add8e6" stroke="#add8e6" points="89.5,-875.3933 16.5,-875.3933 16.5,-839.3933 89.5,-839.3933 89.5,-875.3933"/>
<text text-anchor="middle" x="53" y="-853.6933" font-family="Times,serif" font-size="14.00" fill="#000000">33239826</text>
</g>
<!-- 53833200&#45;&gt;33239826 -->
<g id="edge7" class="edge">
<title>53833200&#45;&gt;33239826</title>
<path fill="none" stroke="#000000" d="M53,-911.2247C53,-903.5243 53,-894.3677 53,-885.8099"/>
<polygon fill="#000000" stroke="#000000" points="56.5001,-885.8065 53,-875.8066 49.5001,-885.8066 56.5001,-885.8065"/>
</g>
<!-- 34484211 -->
<g id="node9" class="node">
<title>34484211</title>
<polygon fill="#add8e6" stroke="#add8e6" points="89.5,-803.3933 16.5,-803.3933 16.5,-767.3933 89.5,-767.3933 89.5,-803.3933"/>
<text text-anchor="middle" x="53" y="-781.6933" font-family="Times,serif" font-size="14.00" fill="#000000">34484211</text>
</g>
<!-- 33239826&#45;&gt;34484211 -->
<g id="edge8" class="edge">
<title>33239826&#45;&gt;34484211</title>
<path fill="none" stroke="#000000" d="M53,-839.2247C53,-831.5243 53,-822.3677 53,-813.8099"/>
<polygon fill="#000000" stroke="#000000" points="56.5001,-813.8065 53,-803.8066 49.5001,-813.8066 56.5001,-813.8065"/>
</g>
<!-- 34933587 -->
<g id="node10" class="node">
<title>34933587</title>
<polygon fill="#add8e6" stroke="#add8e6" points="89.5,-731.3933 16.5,-731.3933 16.5,-695.3933 89.5,-695.3933 89.5,-731.3933"/>
<text text-anchor="middle" x="53" y="-709.6933" font-family="Times,serif" font-size="14.00" fill="#000000">34933587</text>
</g>
<!-- 34484211&#45;&gt;34933587 -->
<g id="edge9" class="edge">
<title>34484211&#45;&gt;34933587</title>
<path fill="none" stroke="#000000" d="M53,-767.2247C53,-759.5243 53,-750.3677 53,-741.8099"/>
<polygon fill="#000000" stroke="#000000" points="56.5001,-741.8065 53,-731.8066 49.5001,-741.8066 56.5001,-741.8065"/>
</g>
<!-- 37317716 -->
<g id="node11" class="node">
<title>37317716</title>
<polygon fill="#add8e6" stroke="#add8e6" points="89.5,-635.6967 16.5,-635.6967 16.5,-599.6967 89.5,-599.6967 89.5,-635.6967"/>
<text text-anchor="middle" x="53" y="-613.9967" font-family="Times,serif" font-size="14.00" fill="#000000">37317716</text>
</g>
<!-- 34933587&#45;&gt;37317716 -->
<g id="edge10" class="edge">
<title>34933587&#45;&gt;37317716</title>
<path fill="none" stroke="#000000" d="M53,-694.942C53,-681.0854 53,-661.8585 53,-646.0537"/>
<polygon fill="#000000" stroke="#000000" points="56.5001,-645.7667 53,-635.7668 49.5001,-645.7668 56.5001,-645.7667"/>
</g>
<!-- 30684790 -->
<g id="node12" class="node">
<title>30684790</title>
<polygon fill="#add8e6" stroke="#add8e6" points="89.5,-540 16.5,-540 16.5,-504 89.5,-504 89.5,-540"/>
<text text-anchor="middle" x="53" y="-518.3" font-family="Times,serif" font-size="14.00" fill="#000000">30684790</text>
</g>
<!-- 37317716&#45;&gt;30684790 -->
<g id="edge11" class="edge">
<title>37317716&#45;&gt;30684790</title>
<path fill="none" stroke="#000000" d="M53,-599.2454C53,-585.3887 53,-566.1618 53,-550.3571"/>
<polygon fill="#000000" stroke="#000000" points="56.5001,-550.0701 53,-540.0701 49.5001,-550.0701 56.5001,-550.0701"/>
</g>
<!-- 31929175 -->
<g id="node13" class="node">
<title>31929175</title>
<polygon fill="#add8e6" stroke="#add8e6" points="89.5,-468 16.5,-468 16.5,-432 89.5,-432 89.5,-468"/>
<text text-anchor="middle" x="53" y="-446.3" font-family="Times,serif" font-size="14.00" fill="#000000">31929175</text>
</g>
<!-- 30684790&#45;&gt;31929175 -->
<g id="edge12" class="edge">
<title>30684790&#45;&gt;31929175</title>
<path fill="none" stroke="#000000" d="M53,-503.8314C53,-496.131 53,-486.9743 53,-478.4166"/>
<polygon fill="#000000" stroke="#000000" points="56.5001,-478.4132 53,-468.4133 49.5001,-478.4133 56.5001,-478.4132"/>
</g>
<!-- 51019481 -->
<g id="node14" class="node">
<title>51019481</title>
<polygon fill="#add8e6" stroke="#add8e6" points="89.5,-396 16.5,-396 16.5,-360 89.5,-360 89.5,-396"/>
<text text-anchor="middle" x="53" y="-374.3" font-family="Times,serif" font-size="14.00" fill="#000000">51019481</text>
</g>
<!-- 31929175&#45;&gt;51019481 -->
<g id="edge13" class="edge">
<title>31929175&#45;&gt;51019481</title>
<path fill="none" stroke="#000000" d="M53,-431.8314C53,-424.131 53,-414.9743 53,-406.4166"/>
<polygon fill="#000000" stroke="#000000" points="56.5001,-406.4132 53,-396.4133 49.5001,-406.4133 56.5001,-406.4132"/>
</g>
<!-- 37982233 -->
<g id="node15" class="node">
<title>37982233</title>
<polygon fill="#add8e6" stroke="#add8e6" points="89.5,-324 16.5,-324 16.5,-288 89.5,-288 89.5,-324"/>
<text text-anchor="middle" x="53" y="-302.3" font-family="Times,serif" font-size="14.00" fill="#000000">37982233</text>
</g>
<!-- 51019481&#45;&gt;37982233 -->
<g id="edge14" class="edge">
<title>51019481&#45;&gt;37982233</title>
<path fill="none" stroke="#000000" d="M53,-359.8314C53,-352.131 53,-342.9743 53,-334.4166"/>
<polygon fill="#000000" stroke="#000000" points="56.5001,-334.4132 53,-324.4133 49.5001,-334.4133 56.5001,-334.4132"/>
</g>
<!-- 51993598 -->
<g id="node16" class="node">
<title>51993598</title>
<polygon fill="#add8e6" stroke="#add8e6" points="89.5,-252 16.5,-252 16.5,-216 89.5,-216 89.5,-252"/>
<text text-anchor="middle" x="53" y="-230.3" font-family="Times,serif" font-size="14.00" fill="#000000">51993598</text>
</g>
<!-- 37982233&#45;&gt;51993598 -->
<g id="edge15" class="edge">
<title>37982233&#45;&gt;51993598</title>
<path fill="none" stroke="#000000" d="M53,-287.8314C53,-280.131 53,-270.9743 53,-262.4166"/>
<polygon fill="#000000" stroke="#000000" points="56.5001,-262.4132 53,-252.4133 49.5001,-262.4133 56.5001,-262.4132"/>
</g>
<!-- 35733886 -->
<g id="node17" class="node">
<title>35733886</title>
<polygon fill="#add8e6" stroke="#add8e6" points="89.5,-180 16.5,-180 16.5,-144 89.5,-144 89.5,-180"/>
<text text-anchor="middle" x="53" y="-158.3" font-family="Times,serif" font-size="14.00" fill="#000000">35733886</text>
</g>
<!-- 51993598&#45;&gt;35733886 -->
<g id="edge16" class="edge">
<title>51993598&#45;&gt;35733886</title>
<path fill="none" stroke="#000000" d="M53,-215.8314C53,-208.131 53,-198.9743 53,-190.4166"/>
<polygon fill="#000000" stroke="#000000" points="56.5001,-190.4132 53,-180.4133 49.5001,-190.4133 56.5001,-190.4132"/>
</g>
<!-- Sum(+) -->
<g id="node18" class="node">
<title>Sum(+)</title>
<ellipse fill="#ffffe0" stroke="#ffffe0" cx="53" cy="-90" rx="38.1938" ry="18"/>
<text text-anchor="middle" x="53" y="-86.3" font-family="Times,serif" font-size="14.00" fill="#000000">Sum(+)</text>
</g>
<!-- 35733886&#45;&gt;Sum(+) -->
<g id="edge17" class="edge">
<title>35733886&#45;&gt;Sum(+)</title>
<path fill="none" stroke="#000000" d="M53,-143.8314C53,-136.131 53,-126.9743 53,-118.4166"/>
<polygon fill="#000000" stroke="#000000" points="56.5001,-118.4132 53,-108.4133 49.5001,-118.4133 56.5001,-118.4132"/>
</g>
<!-- 731031916 -->
<g id="node19" class="node">
<title>731031916</title>
<polygon fill="#006400" stroke="#006400" points="135,-36 55,-36 55,0 135,0 135,-36"/>
<text text-anchor="middle" x="95" y="-14.3" font-family="Times,serif" font-size="14.00" fill="#ffffff">731031916</text>
</g>
<!-- Sum(+)&#45;&gt;731031916 -->
<g id="edge18" class="edge">
<title>Sum(+)&#45;&gt;731031916</title>
<path fill="none" stroke="#000000" d="M63.167,-72.5708C68.0104,-64.2679 73.9124,-54.1502 79.3127,-44.8925"/>
<polygon fill="#000000" stroke="#000000" points="82.4725,-46.422 84.488,-36.0206 76.426,-42.8948 82.4725,-46.422"/>
</g>
<!-- Highest -->
<g id="node20" class="node">
<title>Highest</title>
<ellipse fill="#000000" stroke="#000000" cx="185" cy="-1314.3899" rx="38.9934" ry="38.9934"/>
<ellipse fill="none" stroke="#000000" cx="185" cy="-1314.3899" rx="42.9931" ry="42.9931"/>
<text text-anchor="middle" x="185" y="-1310.6899" font-family="Times,serif" font-size="14.00" fill="#ffffff">Highest</text>
</g>
<!-- Highest&#45;&gt;62711937 -->
<g id="edge19" class="edge">
<title>Highest&#45;&gt;62711937</title>
<path fill="none" stroke="#000000" d="M150.3186,-1288.9052C130.49,-1274.3347 105.7517,-1256.1564 86.1792,-1241.7741"/>
<polygon fill="#000000" stroke="#000000" points="87.993,-1238.7636 77.8621,-1235.6625 83.8479,-1244.4044 87.993,-1238.7636"/>
</g>
<!-- sum2 -->
<g id="node22" class="node">
<title>sum2</title>
<ellipse fill="#ffffe0" stroke="#ffffe0" cx="184" cy="-522" rx="38.1938" ry="18"/>
<text text-anchor="middle" x="184" y="-518.3" font-family="Times,serif" font-size="14.00" fill="#000000">Sum(+)</text>
</g>
<!-- Highest&#45;&gt;sum2 -->
<g id="edge21" class="edge">
<title>Highest&#45;&gt;sum2</title>
<path fill="none" stroke="#000000" d="M198.048,-1273.1842C207.6362,-1239.2488 219,-1189.6861 219,-1145.3933 219,-1145.3933 219,-1145.3933 219,-713.3933 219,-651.7485 213.0154,-636.2551 200,-576 198.1213,-567.3027 195.5566,-557.9653 193.0308,-549.5419"/>
<polygon fill="#000000" stroke="#000000" points="196.3226,-548.3398 190.0181,-539.8249 189.6366,-550.4128 196.3226,-548.3398"/>
</g>
<!-- Lowest -->
<g id="node21" class="node">
<title>Lowest</title>
<ellipse fill="#000000" stroke="#000000" cx="149" cy="-617.6967" rx="37.8753" ry="37.8753"/>
<ellipse fill="none" stroke="#000000" cx="149" cy="-617.6967" rx="41.8942" ry="41.8942"/>
<text text-anchor="middle" x="149" y="-613.9967" font-family="Times,serif" font-size="14.00" fill="#ffffff">Lowest</text>
</g>
<!-- Lowest&#45;&gt;30684790 -->
<g id="edge20" class="edge">
<title>Lowest&#45;&gt;30684790</title>
<path fill="none" stroke="#000000" d="M119.4135,-588.2036C106.3653,-575.1967 91.1774,-560.0568 78.6215,-547.5406"/>
<polygon fill="#000000" stroke="#000000" points="80.7397,-544.7101 71.1865,-540.129 75.7978,-549.6677 80.7397,-544.7101"/>
</g>
<!-- Lowest&#45;&gt;sum2 -->
<g id="edge22" class="edge">
<title>Lowest&#45;&gt;sum2</title>
<path fill="none" stroke="#000000" d="M163.3368,-578.497C166.9031,-568.7463 170.6506,-558.4998 173.9602,-549.4508"/>
<polygon fill="#000000" stroke="#000000" points="177.3298,-550.4271 177.4777,-539.8333 170.7557,-548.0226 177.3298,-550.4271"/>
</g>
<!-- 93396727 -->
<g id="node23" class="node">
<title>93396727</title>
<polygon fill="#006400" stroke="#006400" points="266.5,-468 193.5,-468 193.5,-432 266.5,-432 266.5,-468"/>
<text text-anchor="middle" x="230" y="-446.3" font-family="Times,serif" font-size="14.00" fill="#ffffff">93396727</text>
</g>
<!-- sum2&#45;&gt;93396727 -->
<g id="edge23" class="edge">
<title>sum2&#45;&gt;93396727</title>
<path fill="none" stroke="#000000" d="M195.1353,-504.5708C200.4952,-496.1815 207.0388,-485.9392 213.0033,-476.6035"/>
<polygon fill="#000000" stroke="#000000" points="216.0523,-478.3319 218.4868,-468.0206 210.1535,-474.5632 216.0523,-478.3319"/>
</g>
<!-- Invalid -->
<g id="node24" class="node">
<title>Invalid</title>
<polygon fill="#ff0000" stroke="#ff0000" points="165,-108 109,-108 109,-72 165,-72 165,-108"/>
<text text-anchor="middle" x="137" y="-86.3" font-family="Times,serif" font-size="14.00" fill="#ffffff">Invalid</text>
</g>
<!-- Invalid&#45;&gt;731031916 -->
<g id="edge24" class="edge">
<title>Invalid&#45;&gt;731031916</title>
<path fill="none" stroke="#000000" d="M126.4016,-71.8314C121.7123,-63.7925 116.0972,-54.1666 110.9202,-45.2918"/>
<polygon fill="#000000" stroke="#000000" points="113.8031,-43.2875 105.7411,-36.4133 107.7566,-46.8146 113.8031,-43.2875"/>
</g>
<!-- Weakness -->
<g id="node25" class="node">
<title>Weakness</title>
<polygon fill="#ff0000" stroke="#ff0000" points="313.5,-540 240.5,-540 240.5,-504 313.5,-504 313.5,-540"/>
<text text-anchor="middle" x="277" y="-518.3" font-family="Times,serif" font-size="14.00" fill="#ffffff">Weakness</text>
</g>
<!-- Weakness&#45;&gt;93396727 -->
<g id="edge25" class="edge">
<title>Weakness&#45;&gt;93396727</title>
<path fill="none" stroke="#000000" d="M265.1399,-503.8314C259.8371,-495.7079 253.4763,-485.9637 247.6327,-477.0118"/>
<polygon fill="#000000" stroke="#000000" points="250.4169,-474.8739 242.0198,-468.4133 244.5552,-478.7003 250.4169,-474.8739"/>
</g>
</g>
</svg>
